<?xml version="1.0" standalone="no"?>
<!DOCTYPE svg PUBLIC "-//W3C//DTD SVG 20010904//EN"
 "http://www.w3.org/TR/2001/REC-SVG-20010904/DTD/svg10.dtd">
<svg version="1.0" xmlns="http://www.w3.org/2000/svg"
 width="1024.000000pt" height="1024.000000pt" viewBox="0 0 1024.000000 1024.000000"
 preserveAspectRatio="xMidYMid meet">

<g transform="translate(0.000000,1024.000000) scale(0.100000,-0.100000)"
fill="#000000" stroke="none">
<path d="M8100 8331 c0 -5 6 -11 13 -14 17 -6 31 -58 51 -180 30 -185 84 -251
341 -420 251 -164 353 -285 399 -471 20 -77 23 -226 7 -296 -54 -238 -203
-440 -461 -625 -211 -151 -530 -287 -530 -227 0 5 48 31 108 57 146 64 222
106 386 214 76 50 247 213 298 284 104 147 148 278 148 442 -1 109 -11 156
-54 249 -55 120 -178 234 -401 371 -106 66 -204 165 -244 246 -29 60 -50 141
-66 252 -3 26 -10 47 -15 47 -5 0 -19 -30 -32 -67 -20 -59 -23 -86 -22 -208 0
-119 4 -150 23 -205 29 -82 128 -232 221 -334 114 -125 157 -189 186 -279 22
-70 25 -93 20 -158 -18 -225 -146 -468 -361 -684 -156 -157 -296 -253 -520
-357 -138 -64 -178 -79 -331 -118 -165 -43 -263 -53 -468 -48 -161 5 -189 8
-251 30 -209 75 -316 175 -367 341 -27 90 -22 192 16 297 40 112 41 111 -29
139 -104 41 -226 61 -380 61 -196 0 -285 -23 -551 -140 l-115 -51 -137 64
c-207 98 -279 119 -444 125 -82 3 -169 0 -219 -8 -85 -12 -248 -55 -262 -69
-4 -4 3 -41 17 -82 68 -207 30 -416 -99 -543 -61 -60 -182 -124 -295 -156
-107 -30 -359 -39 -490 -17 -312 54 -608 174 -818 331 -230 174 -448 451 -517
659 -39 117 -46 171 -37 273 14 140 45 195 272 469 63 76 133 218 156 313 27
117 8 332 -37 412 l-14 25 -3 -25 c-22 -193 -55 -293 -126 -385 -57 -73 -114
-120 -280 -230 -270 -179 -376 -341 -376 -575 0 -337 299 -688 758 -888 78
-34 149 -62 156 -62 7 0 19 -7 26 -15 10 -12 8 -16 -11 -24 -53 -19 -364 117
-519 227 -97 69 -280 256 -338 344 -89 138 -134 287 -133 442 2 255 142 447
470 648 198 121 298 281 314 502 l5 70 -18 -45 c-10 -24 -21 -65 -25 -91 -3
-26 -13 -54 -21 -62 -8 -8 -17 -30 -21 -48 -12 -65 -70 -152 -117 -178 -14 -7
-26 -18 -27 -24 0 -15 -136 -123 -208 -166 -115 -69 -157 -103 -206 -167 -27
-37 -57 -73 -65 -81 -8 -8 -30 -47 -50 -87 -34 -65 -45 -93 -56 -135 -6 -21
-5 -258 1 -301 7 -53 30 -112 70 -180 19 -33 38 -71 41 -84 3 -14 9 -25 13
-25 3 0 12 -12 18 -27 19 -42 220 -245 298 -302 39 -28 90 -65 115 -83 59 -43
132 -81 197 -102 28 -10 63 -26 76 -36 33 -26 106 -41 187 -38 59 2 73 -2 121
-30 30 -17 100 -55 157 -83 86 -43 102 -54 102 -74 0 -32 -14 -39 -53 -26 -60
19 -178 23 -249 7 -113 -24 -168 -87 -168 -192 0 -58 14 -90 89 -199 33 -49
61 -95 61 -102 0 -6 3 -13 8 -15 4 -1 24 -24 45 -50 21 -27 86 -87 145 -135
59 -47 112 -92 117 -98 6 -7 43 -29 83 -49 138 -69 319 -99 459 -76 43 7 83
16 88 20 23 16 63 19 81 6 16 -12 19 -33 25 -153 7 -155 6 -151 60 -324 21
-70 39 -132 39 -139 0 -22 133 -297 169 -350 18 -27 71 -142 71 -155 0 -5 12
-23 26 -42 23 -30 94 -194 94 -217 0 -4 16 -43 36 -85 19 -42 46 -113 59 -158
25 -84 46 -128 68 -136 12 -4 15 -77 5 -107 -3 -8 -14 -85 -24 -172 -16 -144
-16 -162 -2 -230 9 -40 23 -93 32 -117 22 -57 94 -178 109 -184 7 -3 26 -31
42 -63 51 -98 133 -176 254 -241 126 -68 260 -123 299 -123 15 0 69 -9 119
-20 130 -28 298 -29 439 -2 169 32 421 129 510 197 55 41 138 137 175 201 16
28 36 57 44 64 8 7 15 16 15 21 0 5 13 29 30 55 33 52 53 114 70 219 10 65 8
184 -4 203 -3 5 -6 35 -7 68 -1 32 -8 76 -16 98 -7 21 -13 58 -13 82 0 34 4
44 20 49 11 4 27 16 35 28 12 19 98 253 110 297 10 40 67 161 135 285 19 33
44 83 58 110 65 136 118 241 122 245 10 10 52 116 72 180 63 208 86 313 93
430 10 163 13 180 41 190 18 7 33 5 57 -9 92 -52 303 -47 422 9 11 5 55 25 97
44 146 65 352 240 428 365 22 36 61 98 86 137 39 61 46 80 50 140 8 98 -8 140
-70 182 -27 18 -54 31 -60 30 -9 -2 -143 12 -156 16 -2 0 -16 12 -31 26 -28
27 -23 50 13 50 10 0 41 18 69 40 28 22 56 40 62 40 6 0 18 7 28 16 14 12 37
16 97 15 69 -1 88 3 143 29 35 16 71 30 79 30 19 0 149 66 175 89 11 10 47 33
79 51 32 18 91 60 130 92 81 68 231 212 240 231 3 6 26 44 51 82 56 87 83 145
97 209 6 27 17 64 24 82 18 42 18 208 0 289 -12 57 -76 197 -119 260 -24 36
-68 77 -162 153 -38 31 -71 60 -73 64 -2 4 -8 8 -13 8 -13 0 -92 52 -102 67
-4 7 -13 13 -20 13 -25 0 -136 87 -160 125 -64 101 -117 225 -117 271 0 36
-37 117 -60 132 -11 7 -20 8 -20 3z m25 -374 c40 -81 60 -104 174 -196 120
-96 151 -118 214 -149 62 -32 192 -159 246 -241 60 -94 75 -148 74 -266 -2
-166 -69 -354 -158 -445 -24 -25 -72 -78 -106 -118 -33 -41 -69 -76 -78 -80
-22 -8 -113 -75 -130 -95 -7 -9 -44 -32 -81 -51 -62 -32 -69 -33 -89 -20 -11
8 -21 21 -21 28 0 8 24 40 53 72 90 102 112 135 180 269 55 109 70 148 88 239
19 96 21 121 12 204 -10 91 -12 97 -63 171 -29 42 -68 94 -87 116 -19 22 -70
82 -113 132 -121 142 -200 325 -187 435 11 87 28 86 72 -5z m-5912 -1 c25 -19
22 -78 -8 -167 -25 -73 -102 -219 -116 -219 -4 0 -16 -15 -26 -32 -11 -18 -56
-76 -100 -128 -98 -117 -126 -164 -154 -260 -29 -100 -32 -143 -15 -220 8 -36
17 -81 21 -100 10 -66 110 -263 174 -346 34 -43 88 -114 121 -156 33 -42 60
-81 60 -87 0 -6 5 -11 11 -11 5 0 7 -5 3 -11 -11 -18 -62 -2 -148 48 -139 79
-161 95 -253 181 -13 12 -28 22 -32 22 -18 0 -176 189 -212 254 -68 121 -93
209 -93 336 -1 159 53 291 161 396 52 50 189 154 293 223 87 58 100 71 188
181 97 120 95 119 125 96z m2496 -1343 c41 -8 82 -19 90 -23 9 -5 39 -16 66
-26 28 -9 87 -37 132 -61 89 -46 131 -53 193 -29 109 43 147 59 171 77 15 10
49 24 76 29 26 5 75 17 108 25 118 31 171 37 296 31 149 -6 260 -29 296 -60
l26 -23 -21 -125 c-17 -102 -19 -138 -11 -194 12 -91 76 -222 137 -281 47 -46
213 -136 309 -167 28 -10 64 -26 78 -38 l26 -20 -26 -33 c-14 -19 -25 -39 -25
-45 0 -8 -9 -10 -25 -6 -23 6 -25 4 -25 -28 0 -50 -55 -195 -100 -265 -22 -33
-58 -78 -81 -101 -47 -45 -184 -149 -299 -227 -180 -121 -270 -275 -270 -461
0 -67 17 -152 31 -152 4 0 22 26 39 58 41 78 100 133 248 232 68 45 152 111
186 147 107 110 183 259 208 409 15 87 35 105 52 46 17 -59 -8 -172 -60 -272
-89 -173 -189 -281 -369 -396 -129 -83 -173 -120 -231 -195 -38 -50 -48 -57
-78 -57 -30 0 -37 5 -53 37 -26 51 -25 230 1 325 35 128 137 249 296 352 205
132 310 234 370 359 35 73 67 182 56 192 -9 9 -35 -43 -60 -118 -31 -94 -85
-188 -128 -224 -40 -32 -185 -140 -293 -215 -43 -30 -91 -66 -106 -80 -15 -14
-39 -35 -52 -48 -26 -24 -112 -182 -128 -235 -16 -56 -11 -294 7 -351 9 -28
20 -56 25 -61 4 -6 15 -47 24 -90 17 -82 66 -237 116 -360 66 -165 107 -435
66 -435 -8 0 -32 19 -54 43 -190 200 -195 203 -348 267 -122 51 -245 62 -412
39 -58 -8 -93 -8 -138 1 -33 7 -89 12 -125 12 -114 0 -316 -71 -405 -142 -21
-16 -41 -30 -45 -30 -5 0 -39 -36 -76 -80 -37 -44 -80 -87 -96 -94 -27 -14
-29 -13 -44 10 -25 37 -13 173 26 304 67 227 136 428 169 491 17 32 41 111 68
224 13 55 12 179 -2 240 -23 96 -43 143 -89 205 -43 58 -145 153 -171 158 -8
2 -15 7 -15 12 0 4 -20 20 -44 34 -35 21 -147 105 -166 126 -3 3 -31 27 -63
53 -71 60 -108 113 -136 197 -29 83 -51 130 -62 130 -5 0 -4 -12 1 -26 6 -14
10 -41 10 -61 0 -102 145 -269 363 -419 173 -119 253 -197 296 -288 44 -94 55
-153 48 -276 -5 -92 -12 -123 -55 -250 -206 -602 -218 -646 -229 -841 -3 -66
-10 -122 -15 -125 -32 -20 -43 218 -15 344 27 121 125 428 184 577 89 224 101
333 55 482 -39 124 -88 176 -343 358 -46 33 -125 101 -175 150 -73 72 -99 106
-130 169 -32 66 -39 90 -39 143 0 53 -2 62 -16 58 -9 -3 -21 0 -26 7 -15 21
-36 95 -29 106 3 5 75 44 159 85 133 65 160 83 205 132 29 31 52 62 52 69 0 8
8 24 18 37 39 50 52 116 52 260 0 76 -5 160 -12 189 -10 42 -9 53 3 64 17 16
184 54 254 58 98 6 251 -3 324 -19z m3168 -822 c60 -28 77 -58 70 -130 -13
-152 -222 -431 -414 -554 -97 -62 -177 -102 -270 -133 -66 -22 -95 -27 -188
-26 -164 0 -197 19 -250 151 -35 85 -65 200 -55 206 13 8 34 -29 70 -123 22
-58 45 -97 74 -127 36 -38 48 -44 99 -50 195 -24 450 89 649 287 95 95 238
325 238 383 0 66 -76 90 -227 75 -114 -12 -144 -19 -266 -66 -169 -65 -259
-85 -410 -91 -155 -7 -253 6 -307 38 -56 35 -25 41 111 23 194 -25 358 -5 564
71 199 73 240 82 380 84 69 0 100 -4 132 -18z m-5252 -6 c33 -7 126 -36 205
-63 221 -75 314 -94 455 -94 84 0 147 6 209 20 63 15 95 18 108 11 10 -5 18
-12 18 -14 0 -2 -15 -37 -34 -77 -35 -78 -48 -115 -117 -343 -52 -174 -71
-205 -146 -242 -50 -24 -72 -28 -163 -32 -129 -4 -189 8 -307 64 -130 61 -229
133 -331 239 -221 232 -303 454 -189 515 60 32 193 40 292 16z m577 -37 c21 1
42 -23 33 -38 -8 -14 -127 -5 -162 12 -15 7 -29 19 -31 27 -4 11 8 13 69 6 41
-4 82 -7 91 -7z m3977 -4 c12 -11 -20 -24 -72 -29 -54 -6 -59 -5 -64 15 -4 17
-11 20 -29 16 -12 -3 -26 -1 -30 5 -4 8 22 9 92 4 55 -4 101 -9 103 -11z m649
-40 c25 -17 30 -65 10 -111 -17 -41 -91 -153 -100 -153 -4 0 -8 -6 -8 -14 0
-8 -15 -27 -34 -43 -19 -15 -52 -50 -73 -78 -39 -51 -82 -94 -96 -95 -4 0 -24
-11 -45 -23 -20 -13 -57 -35 -82 -49 -25 -14 -61 -34 -81 -45 -84 -48 -154
-66 -234 -60 -42 4 -95 15 -119 26 -42 18 -48 26 -111 153 -71 141 -119 221
-154 252 -62 56 -76 132 -22 120 14 -3 33 -8 41 -11 18 -7 46 -9 225 -12 135
-3 145 -2 295 37 85 22 180 50 210 62 119 49 164 59 260 59 71 1 101 -3 118
-15z m-4168 -187 c0 -8 9 -24 20 -37 23 -27 27 -75 6 -83 -50 -19 -87 38 -62
97 15 35 36 49 36 23z m3032 -154 c23 -26 67 -202 79 -315 18 -182 -23 -481
-95 -678 -43 -120 -133 -316 -196 -431 -146 -263 -246 -491 -265 -609 -4 -25
-14 -62 -22 -83 -13 -32 -20 -38 -40 -35 -22 3 -29 13 -50 83 -13 44 -42 163
-63 265 -21 102 -61 264 -88 360 -61 213 -66 242 -53 316 11 62 91 232 123
261 26 23 23 6 -17 -91 -67 -169 -69 -250 -11 -433 50 -154 91 -329 111 -468
31 -212 37 -220 75 -87 34 115 53 159 225 502 176 351 217 448 261 619 66 255
69 518 9 725 -25 85 -26 116 -7 116 5 0 16 -8 24 -17z m-3082 -17 c0 -2 -9
-34 -21 -71 -54 -175 -71 -387 -45 -565 29 -195 95 -373 272 -731 222 -448
298 -650 274 -724 -6 -19 -18 -35 -26 -35 -8 0 -14 1 -14 3 0 1 -15 63 -34
137 -39 156 -126 361 -284 670 -197 383 -252 574 -252 875 0 117 4 155 25 232
35 131 72 213 95 213 6 0 10 -2 10 -4z m94 -38 c57 -298 127 -403 386 -573
169 -111 239 -176 275 -256 45 -102 10 -125 -48 -31 -50 81 -123 146 -275 245
-175 114 -247 189 -312 321 -53 108 -72 188 -63 269 6 50 29 66 37 25z m167
-75 c45 -47 126 -113 205 -167 173 -119 255 -204 300 -308 38 -89 45 -160 18
-189 -21 -23 -41 -15 -89 36 -49 53 -215 185 -232 185 -21 0 -136 99 -178 153
-87 111 -147 247 -147 331 0 75 15 70 123 -41z m2615 3 c3 -13 3 -40 0 -60 -7
-43 -61 -159 -82 -177 -8 -7 -25 -31 -36 -53 -23 -46 -115 -146 -133 -146 -7
0 -15 -6 -18 -14 -3 -7 -43 -35 -89 -61 -45 -27 -103 -70 -128 -96 -30 -32
-55 -49 -74 -51 -26 -3 -30 1 -41 39 -16 53 -5 112 32 168 15 22 37 57 51 77
13 21 41 50 61 65 20 15 45 37 57 48 11 12 54 41 95 65 78 46 199 137 221 168
14 20 58 52 70 52 4 0 10 -11 14 -24z m-2827 -128 c70 -204 82 -219 273 -373
251 -202 268 -220 312 -307 65 -132 62 -193 -29 -483 -52 -169 -68 -237 -90
-376 -6 -40 -30 -68 -45 -53 -11 11 -93 176 -156 314 -27 58 -61 125 -76 150
-38 64 -82 153 -113 235 -15 39 -30 77 -35 87 -5 9 -29 67 -54 130 -71 182
-105 456 -76 631 20 126 55 143 89 45z m3027 -39 c17 -66 8 -235 -21 -404 -26
-145 -64 -268 -128 -405 -19 -41 -47 -102 -62 -135 -15 -33 -35 -71 -44 -85
-9 -14 -41 -77 -70 -140 -59 -127 -63 -136 -113 -230 -55 -104 -72 -130 -86
-130 -18 0 -51 79 -62 148 -9 56 -17 87 -66 262 -61 216 -61 216 -29 342 16
62 34 127 42 143 33 76 94 138 206 211 81 53 193 168 263 270 12 17 35 66 53
109 41 101 57 120 85 102 12 -8 26 -34 32 -58z m-1637 -1331 l74 -22 89 24
c159 41 323 17 471 -71 88 -51 206 -169 242 -239 25 -49 31 -106 10 -104 -5 1
-28 32 -51 70 -23 38 -70 99 -104 137 -49 54 -79 75 -144 106 -156 75 -286 90
-394 46 -76 -31 -139 -32 -217 -3 -152 55 -373 -1 -517 -130 -73 -66 -223
-272 -279 -385 -65 -129 -91 -238 -91 -382 -1 -229 73 -344 248 -389 92 -24
186 -20 336 13 208 46 284 54 462 48 142 -4 177 -9 296 -40 176 -46 234 -52
339 -33 156 28 213 78 261 226 19 59 23 94 23 179 -1 124 -10 167 -64 312 -23
60 -38 116 -35 124 17 47 87 -69 128 -212 42 -146 28 -395 -29 -508 -19 -38
-80 -103 -115 -121 -19 -10 -25 -19 -21 -34 9 -35 -6 -67 -57 -124 -86 -93
-199 -155 -395 -214 -165 -50 -257 -65 -405 -65 -157 0 -214 9 -388 64 -145
47 -252 99 -335 165 -83 65 -139 159 -107 179 18 11 11 24 -22 41 -46 23 -106
82 -129 126 -71 138 -69 407 5 587 30 73 202 334 267 405 186 204 431 289 648
224z m-49 -83 c109 -26 126 -26 212 -4 116 31 252 31 331 0 140 -55 260 -154
309 -256 36 -77 36 -100 0 -113 -15 -5 -50 -35 -77 -67 -61 -69 -94 -104 -169
-173 -75 -71 -115 -150 -112 -219 7 -114 95 -177 221 -159 35 6 57 18 98 56
74 68 106 141 119 274 17 174 35 183 96 50 33 -74 36 -87 40 -204 6 -163 -8
-252 -46 -299 -76 -93 -196 -138 -341 -127 -82 6 -113 12 -281 53 -105 25
-450 25 -560 -1 -134 -31 -243 -47 -335 -48 -78 -2 -97 1 -145 24 -71 34 -135
90 -163 142 -20 38 -22 54 -22 221 1 164 3 184 23 229 12 27 22 53 22 58 0 14
42 47 61 48 14 0 17 -18 21 -132 5 -122 8 -137 34 -186 74 -139 220 -201 328
-139 58 33 79 67 84 136 6 80 -9 106 -129 231 -55 58 -111 121 -124 140 -13
19 -39 53 -59 74 -21 22 -41 47 -46 55 -13 24 31 98 98 166 80 80 136 120 213
151 109 45 174 49 299 19z m-559 -442 c20 -35 76 -100 140 -163 119 -117 139
-148 139 -215 0 -125 -115 -182 -245 -121 -71 33 -111 78 -136 155 -26 78 -31
214 -10 276 28 82 51 125 65 125 8 0 29 -26 47 -57z m1441 10 c18 -40 22 -67
22 -163 1 -196 -54 -318 -161 -354 -156 -53 -247 33 -203 193 9 36 31 63 126
154 83 80 121 125 139 164 14 29 32 53 41 53 8 0 24 -21 36 -47z"/>
<path d="M2380 5727 c-14 -7 -31 -24 -38 -39 -17 -37 11 -108 89 -227 109
-165 252 -299 406 -379 108 -56 185 -75 313 -76 91 -1 111 2 147 21 23 13 49
33 58 45 8 13 42 106 75 208 33 102 75 218 95 259 20 41 34 75 32 77 -1 2 -32
-6 -67 -18 -90 -29 -248 -35 -365 -14 -49 8 -160 38 -245 66 -85 28 -191 60
-235 70 -91 23 -227 26 -265 7z m256 -33 c27 -9 63 -22 79 -29 41 -19 164 -55
186 -55 10 0 36 -6 56 -14 21 -7 82 -24 135 -36 84 -19 117 -22 234 -18 l136
5 9 -25 c9 -24 7 -46 -11 -87 -26 -63 -50 -127 -65 -175 -10 -30 -31 -80 -47
-111 -42 -81 -84 -102 -210 -107 -116 -5 -186 15 -320 90 -113 63 -169 111
-276 235 -106 123 -150 194 -158 255 -6 45 -5 47 27 67 42 26 152 28 225 5z"/>
<path d="M4975 2399 c-38 -5 -137 -22 -219 -39 -182 -37 -308 -40 -391 -11
-30 11 -55 16 -55 12 0 -15 57 -86 102 -127 56 -51 108 -82 229 -133 285 -121
618 -126 919 -14 178 66 291 138 339 217 12 18 21 35 21 38 0 2 -33 -4 -72
-14 -91 -24 -170 -18 -326 23 -197 52 -377 68 -547 48z m445 -53 c125 -37 247
-66 278 -66 39 0 72 -15 72 -33 -1 -17 -74 -70 -140 -101 -51 -25 -123 -47
-210 -66 -19 -5 -60 -15 -90 -23 -30 -8 -93 -17 -140 -19 -83 -5 -306 12 -326
25 -6 3 -55 18 -110 32 -139 37 -257 100 -288 152 -13 24 4 32 89 43 44 6 130
22 190 37 156 37 206 42 425 39 145 -2 209 -7 250 -20z"/>
<path d="M4370 3114 c-37 -196 66 -374 215 -374 84 0 114 97 55 178 -16 22
-42 51 -58 62 -16 12 -65 62 -108 111 -43 49 -81 89 -85 89 -4 0 -12 -30 -19
-66z m132 -103 c90 -68 118 -104 118 -150 0 -106 -136 -106 -190 0 -21 41 -38
155 -27 183 10 26 30 19 99 -33z"/>
<path d="M5725 3037 c-66 -66 -125 -129 -132 -141 -21 -36 -16 -113 8 -137 18
-18 29 -21 71 -16 89 11 141 69 173 194 15 58 18 146 6 194 -6 24 -12 20 -126
-94z m103 -64 c8 -107 -99 -212 -157 -154 -22 22 -27 46 -11 56 5 3 7 12 4 20
-4 9 16 36 50 70 45 45 61 56 84 53 24 -3 27 -7 30 -45z"/>
<path d="M8018 8293 c-39 -41 -88 -164 -88 -222 0 -17 -4 -31 -8 -31 -10 0 3
-127 16 -173 6 -18 16 -61 23 -97 8 -39 24 -81 41 -105 16 -22 54 -78 85 -125
30 -47 79 -112 108 -145 29 -33 64 -78 79 -100 15 -22 32 -42 38 -46 6 -4 10
-36 9 -74 -1 -73 -13 -99 -80 -167 -20 -20 -47 -48 -61 -62 -13 -14 -28 -26
-32 -26 -4 0 -43 -24 -85 -53 -73 -50 -206 -107 -353 -152 -30 -9 -68 -21 -85
-27 -16 -5 -70 -15 -120 -23 -49 -7 -133 -21 -185 -30 -119 -22 -714 -27 -792
-7 -26 6 -93 15 -149 18 -84 5 -117 12 -186 40 -46 19 -91 34 -99 34 -8 0 -27
8 -41 18 -40 26 -341 30 -462 7 -113 -22 -185 -41 -211 -55 -21 -11 -160 -64
-214 -80 -37 -12 -139 12 -225 52 -155 73 -265 93 -496 93 -99 0 -138 -5 -222
-28 -57 -15 -128 -38 -160 -52 -33 -15 -83 -27 -121 -30 -35 -3 -68 -8 -74
-11 -15 -9 -182 -33 -191 -27 -4 2 -54 0 -110 -6 -149 -16 -565 1 -722 29
-178 32 -307 66 -381 100 -36 16 -72 30 -80 30 -8 0 -22 4 -32 9 -9 5 -46 23
-82 40 -126 61 -236 152 -287 239 -36 62 -29 127 26 220 22 39 50 81 61 93 10
13 40 49 65 79 104 124 194 298 211 409 10 66 -13 282 -36 340 -21 53 -59 116
-66 109 -2 -2 8 -32 22 -66 97 -242 59 -491 -110 -710 -33 -44 -96 -122 -139
-175 -82 -100 -147 -212 -147 -253 0 -13 3 -24 8 -24 4 0 46 -38 93 -84 160
-155 330 -250 574 -321 200 -58 267 -72 430 -90 179 -20 648 -20 770 0 50 8
117 15 151 15 51 0 65 -4 88 -25 15 -14 29 -25 32 -25 2 0 4 20 4 44 0 34 5
47 23 58 57 37 322 88 458 88 155 0 372 -59 528 -142 l93 -51 117 57 c163 78
335 126 478 133 125 6 271 -8 381 -38 89 -24 128 -43 163 -80 l27 -29 -30 -92
c-25 -75 -31 -111 -32 -188 -1 -87 2 -100 31 -162 101 -214 345 -310 708 -278
364 33 658 146 949 365 72 53 223 204 299 297 106 129 192 327 204 467 5 65 5
66 -12 41 -40 -56 -154 -164 -220 -207 -207 -136 -479 -231 -790 -277 -379
-57 -1116 -23 -1089 49 10 24 31 24 180 5 208 -28 427 -35 655 -21 229 14 340
31 509 77 324 89 480 173 677 365 62 61 83 88 83 108 0 54 -58 146 -180 286
-67 77 -142 174 -166 215 -86 146 -119 310 -95 467 14 84 49 174 83 210 12 13
17 23 12 23 -6 0 -26 -17 -46 -37z m329 -1449 c24 -63 -146 -324 -309 -475
-163 -150 -393 -303 -510 -338 -18 -5 -65 -23 -104 -39 -39 -16 -111 -37 -160
-46 -49 -10 -116 -24 -149 -33 -73 -19 -88 -21 -241 -29 -156 -9 -289 15 -394
70 -62 32 -128 88 -134 113 -4 12 -11 23 -16 23 -27 0 -60 120 -61 219 -1 54
5 79 24 117 47 92 85 106 217 77 72 -15 134 -18 395 -18 303 0 333 2 625 41
19 3 53 11 75 19 22 8 94 31 160 50 133 40 385 158 453 213 61 48 118 64 129
36z"/>
<path d="M1870 6994 c0 -84 71 -291 132 -386 244 -377 617 -633 1072 -734 290
-64 512 -49 722 51 109 51 164 102 205 190 38 81 49 150 39 255 -5 47 -9 88
-9 92 -1 4 -7 5 -14 2 -8 -3 -18 6 -25 20 -6 14 -23 33 -37 42 -24 16 -35 16
-188 -6 -128 -17 -207 -22 -377 -22 -367 1 -515 19 -819 97 -240 62 -504 211
-640 362 -60 67 -61 67 -61 37z m143 -156 c18 -12 34 -25 37 -29 17 -22 262
-157 345 -190 61 -24 278 -89 312 -93 58 -7 109 -16 183 -31 89 -19 178 -26
424 -34 208 -6 248 -4 416 20 133 18 195 17 220 -6 42 -38 50 -68 50 -188 l0
-115 -41 -61 c-39 -58 -103 -121 -123 -121 -5 0 -19 -8 -30 -19 -43 -39 -251
-98 -369 -104 -200 -12 -487 50 -707 151 -188 86 -209 99 -358 220 -195 159
-363 372 -419 532 -17 46 -16 55 3 74 20 20 20 20 57 -6z"/>
</g>
</svg>
